# Blender 3.6.2
# www.blender.org
mtllib ground1.mtl
o Plane
v -6.000000 0.000000 16.000000
v 6.000000 0.000000 16.000000
v -6.000000 0.000000 -16.000000
v 6.000000 0.000000 -16.000000
v -0.750000 0.000000 -10.000000
v -0.735589 0.000000 -9.853683
v -0.735589 0.000000 -10.146317
v -0.623602 0.000000 -10.416677
v -0.623602 0.000000 -9.583323
v -0.692910 0.000000 -10.287012
v -0.692910 0.000000 -9.712988
v -0.530330 0.000000 -10.530330
v -0.530330 0.000000 -9.469670
v -0.416678 0.000000 -10.623602
v -0.416678 0.000000 -9.376398
v -0.287013 0.000000 -10.692909
v -0.287013 0.000000 -9.307091
v -0.146318 0.000000 -10.735589
v -0.146318 0.000000 -9.264411
v 0.000000 0.000000 -10.750000
v 0.000000 0.000000 -9.250000
v 0.146318 0.000000 -10.735589
v 0.146318 0.000000 -9.264411
v 0.287013 0.000000 -10.692909
v 0.287013 0.000000 -9.307091
v 0.530330 0.000000 -9.469670
v 0.416678 0.000000 -10.623602
v 0.416678 0.000000 -9.376398
v 0.623602 0.000000 -9.583323
v 0.530330 0.000000 -10.530330
v 0.623602 0.000000 -10.416677
v 0.750000 0.000000 -10.000000
v 0.735589 0.000000 -10.146317
v 0.735589 0.000000 -9.853683
v 0.692910 0.000000 -10.287012
v 0.692910 0.000000 -9.712988
vn -0.0000 1.0000 -0.0000
vt 0.438701 0.817072
vt 0.000000 1.000000
vt 0.000000 0.000000
vt 1.000000 0.000000
vt 1.000000 1.000000
vt 0.561299 0.817072
vt 0.562500 0.812500
vt 0.561299 0.807928
vt 0.557742 0.803531
vt 0.551967 0.799479
vt 0.544194 0.795927
vt 0.534723 0.793012
vt 0.523918 0.790847
vt 0.512193 0.789513
vt 0.500000 0.789062
vt 0.487807 0.789513
vt 0.476082 0.790847
vt 0.465277 0.793012
vt 0.455806 0.795927
vt 0.448033 0.799479
vt 0.442258 0.803531
vt 0.438701 0.807928
vt 0.437500 0.812500
vt 0.442258 0.821469
vt 0.448033 0.825521
vt 0.455806 0.829073
vt 0.465277 0.831988
vt 0.476082 0.834153
vt 0.487807 0.835487
vt 0.500000 0.835938
vt 0.512193 0.835487
vt 0.523918 0.834153
vt 0.534723 0.831988
vt 0.544194 0.829073
vt 0.551967 0.825521
vt 0.557742 0.821469
s 0
f 7/1/1 3/2/1 1/3/1 2/4/1 4/5/1 33/6/1 32/7/1 34/8/1 36/9/1 29/10/1 26/11/1 28/12/1 25/13/1 23/14/1 21/15/1 19/16/1 17/17/1 15/18/1 13/19/1 9/20/1 11/21/1 6/22/1 5/23/1
f 33/6/1 4/5/1 3/2/1 7/1/1 10/24/1 8/25/1 12/26/1 14/27/1 16/28/1 18/29/1 20/30/1 22/31/1 24/32/1 27/33/1 30/34/1 31/35/1 35/36/1
